HIERARCHY
ROOT Hips
{
	OFFSET 0.053599 88.859886 3.107447
	CHANNELS 6 Xposition Yposition Zposition Zrotation Yrotation Xrotation 
	JOINT Spine
	{
		OFFSET -0.000000 8.814246 -2.080107
		CHANNELS 3 Zrotation Yrotation Xrotation
		JOINT Spine1
		{
			OFFSET 0.000000 8.844141 0.000000
			CHANNELS 3 Zrotation Yrotation Xrotation
			JOINT Spine2
			{
				OFFSET -0.000000 11.682268 0.000000
				CHANNELS 3 Zrotation Yrotation Xrotation
				JOINT Spine3
				{
					OFFSET 0.000000 11.746700 0.000000
					CHANNELS 3 Zrotation Yrotation Xrotation
					JOINT Neck
					{
						OFFSET -0.000000 17.658264 -0.000000
						CHANNELS 3 Zrotation Yrotation Xrotation
						JOINT Neck1
						{
							OFFSET -0.000000 5.101515 -0.000000
							CHANNELS 3 Zrotation Yrotation Xrotation
							JOINT Head
							{
								OFFSET 0.000000 5.101515 0.000000
								CHANNELS 3 Zrotation Yrotation Xrotation
								JOINT HeadEnd
								{
									OFFSET 0.000000 11.655085 0.000000
									CHANNELS 3 Zrotation Yrotation Xrotation
									End Site
									{
										OFFSET 0.000000 0.000000 0.000000
									}
								}
							}
						}
					}
					JOINT RightShoulder
					{
						OFFSET -2.625389 11.175210 0.000000
						CHANNELS 3 Zrotation Yrotation Xrotation
						JOINT RightArm
						{
							OFFSET -0.000000 10.434715 -0.000000
							CHANNELS 3 Zrotation Yrotation Xrotation
							JOINT RightForeArm
							{
								OFFSET -0.000000 29.628420 0.000000
								CHANNELS 3 Zrotation Yrotation Xrotation
								JOINT RightHand
								{
									OFFSET -0.000000 22.857611 0.000000
									CHANNELS 3 Zrotation Yrotation Xrotation
									JOINT RightHandThumb1
									{
										OFFSET -2.867323 3.959563 2.944291
										CHANNELS 3 Zrotation Yrotation Xrotation
										JOINT RightHandThumb2
										{
											OFFSET 0.000000 3.350399 0.000000
											CHANNELS 3 Zrotation Yrotation Xrotation
											JOINT RightHandThumb3
											{
												OFFSET 0.000000 3.756509 -0.000000
												CHANNELS 3 Zrotation Yrotation Xrotation
												JOINT RightHandThumb4
												{
													OFFSET 0.000000 3.147345 0.000000
													CHANNELS 3 Zrotation Yrotation Xrotation
													End Site
													{
														OFFSET 0.000000 0.000000 0.000000
													}
												}
											}
										}
									}
									JOINT RightHandIndex1
									{
										OFFSET -0.086752 10.030893 2.345280
										CHANNELS 3 Zrotation Yrotation Xrotation
										JOINT RightHandIndex2
										{
											OFFSET -0.000000 4.061090 0.000000
											CHANNELS 3 Zrotation Yrotation Xrotation
											JOINT RightHandIndex3
											{
												OFFSET -0.000000 3.248873 0.000000
												CHANNELS 3 Zrotation Yrotation Xrotation
												JOINT RightHandIndex4
												{
													OFFSET 0.000000 2.639709 -0.000000
													CHANNELS 3 Zrotation Yrotation Xrotation
													End Site
													{
														OFFSET 0.000000 0.000000 0.000000
													}
												}
											}
										}
									}
									JOINT RightHandMiddle1
									{
										OFFSET 0.104102 9.502952 0.006768
										CHANNELS 3 Zrotation Yrotation Xrotation
										JOINT RightHandMiddle2
										{
											OFFSET 0.000000 4.568727 0.000000
											CHANNELS 3 Zrotation Yrotation Xrotation
											JOINT RightHandMiddle3
											{
												OFFSET 0.000000 3.654981 -0.000000
												CHANNELS 3 Zrotation Yrotation Xrotation
												JOINT RightHandMiddle4
												{
													OFFSET -0.000000 2.741236 -0.000000
													CHANNELS 3 Zrotation Yrotation Xrotation
													End Site
													{
														OFFSET 0.000000 0.000000 0.000000
													}
												}
											}
										}
									}
									JOINT RightHandRing1
									{
										OFFSET 0.086752 8.921708 -2.267442
										CHANNELS 3 Zrotation Yrotation Xrotation
										JOINT RightHandRing2
										{
											OFFSET -0.000000 4.061090 0.000000
											CHANNELS 3 Zrotation Yrotation Xrotation
											JOINT RightHandRing3
											{
												OFFSET 0.000000 3.654981 -0.000000
												CHANNELS 3 Zrotation Yrotation Xrotation
												JOINT RightHandRing4
												{
													OFFSET 0.000000 2.741236 -0.000000
													CHANNELS 3 Zrotation Yrotation Xrotation
													End Site
													{
														OFFSET 0.000000 0.000000 0.000000
													}
												}
											}
										}
									}
									JOINT RightHandPinky1
									{
										OFFSET -0.173504 7.976997 -4.467199
										CHANNELS 3 Zrotation Yrotation Xrotation
										JOINT RightHandPinky2
										{
											OFFSET 0.000000 3.350399 -0.000000
											CHANNELS 3 Zrotation Yrotation Xrotation
											JOINT RightHandPinky3
											{
												OFFSET -0.000000 2.842763 0.000000
												CHANNELS 3 Zrotation Yrotation Xrotation
												JOINT RightHandPinky4
												{
													OFFSET -0.000000 2.639709 0.000000
													CHANNELS 3 Zrotation Yrotation Xrotation
													End Site
													{
														OFFSET 0.000000 0.000000 0.000000
													}
												}
											}
										}
									}
									JOINT RightForeArmEnd
									{
										OFFSET 0.000000 0.000000 0.000000
										CHANNELS 3 Zrotation Yrotation Xrotation
										End Site
										{
											OFFSET 0.000000 0.000000 0.000000
										}
									}
								}
								JOINT RightArmEnd
								{
									OFFSET 0.000000 0.000000 0.000000
									CHANNELS 3 Zrotation Yrotation Xrotation
									End Site
									{
										OFFSET 0.000000 0.000000 0.000000
									}
								}
							}
						}
					}
					JOINT LeftShoulder
					{
						OFFSET 2.625389 11.175210 0.000000
						CHANNELS 3 Zrotation Yrotation Xrotation
						JOINT LeftArm
						{
							OFFSET 0.000000 10.813635 -0.000000
							CHANNELS 3 Zrotation Yrotation Xrotation
							JOINT LeftForeArm
							{
								OFFSET 0.000000 28.724781 0.000000
								CHANNELS 3 Zrotation Yrotation Xrotation
								JOINT LeftHand
								{
									OFFSET 0.644384 25.716167 -0.328871
									CHANNELS 3 Zrotation Yrotation Xrotation
									JOINT LeftHandThumb1
									{
										OFFSET 2.867323 3.959563 2.944291
										CHANNELS 3 Zrotation Yrotation Xrotation
										JOINT LeftHandThumb2
										{
											OFFSET 0.000000 3.350399 0.000000
											CHANNELS 3 Zrotation Yrotation Xrotation
											JOINT LeftHandThumb3
											{
												OFFSET -0.000000 3.756509 0.000000
												CHANNELS 3 Zrotation Yrotation Xrotation
												JOINT LeftHandThumb4
												{
													OFFSET -0.000000 3.100000 0.000000
													CHANNELS 3 Zrotation Yrotation Xrotation
													End Site
													{
														OFFSET 0.000000 0.000000 0.000000
													}
												}
											}
										}
									}
									JOINT LeftHandIndex1
									{
										OFFSET 0.086752 10.030893 2.345280
										CHANNELS 3 Zrotation Yrotation Xrotation
										JOINT LeftHandIndex2
										{
											OFFSET -0.000000 4.061090 -0.000000
											CHANNELS 3 Zrotation Yrotation Xrotation
											JOINT LeftHandIndex3
											{
												OFFSET 0.000000 3.248873 -0.000000
												CHANNELS 3 Zrotation Yrotation Xrotation
												JOINT LeftHandIndex4
												{
													OFFSET 0.000000 2.639709 -0.000000
													CHANNELS 3 Zrotation Yrotation Xrotation
													End Site
													{
														OFFSET 0.000000 0.000000 0.000000
													}
												}
											}
										}
									}
									JOINT LeftHandMiddle1
									{
										OFFSET -0.104102 9.502952 0.006768
										CHANNELS 3 Zrotation Yrotation Xrotation
										JOINT LeftHandMiddle2
										{
											OFFSET -0.000000 4.568727 -0.000000
											CHANNELS 3 Zrotation Yrotation Xrotation
											JOINT LeftHandMiddle3
											{
												OFFSET 0.000000 3.654981 0.000000
												CHANNELS 3 Zrotation Yrotation Xrotation
												JOINT LeftHandMiddle4
												{
													OFFSET 0.000000 2.741236 -0.000000
													CHANNELS 3 Zrotation Yrotation Xrotation
													End Site
													{
														OFFSET 0.000000 0.000000 0.000000
													}
												}
											}
										}
									}
									JOINT LeftHandRing1
									{
										OFFSET -0.086752 8.921708 -2.267442
										CHANNELS 3 Zrotation Yrotation Xrotation
										JOINT LeftHandRing2
										{
											OFFSET 0.000000 4.061090 0.000000
											CHANNELS 3 Zrotation Yrotation Xrotation
											JOINT LeftHandRing3
											{
												OFFSET 0.000000 3.654981 0.000000
												CHANNELS 3 Zrotation Yrotation Xrotation
												JOINT LeftHandRing4
												{
													OFFSET 0.000000 2.741236 0.000000
													CHANNELS 3 Zrotation Yrotation Xrotation
													End Site
													{
														OFFSET 0.000000 0.000000 0.000000
													}
												}
											}
										}
									}
									JOINT LeftHandPinky1
									{
										OFFSET 0.173504 7.976997 -4.467199
										CHANNELS 3 Zrotation Yrotation Xrotation
										JOINT LeftHandPinky2
										{
											OFFSET -0.000000 3.350399 -0.000000
											CHANNELS 3 Zrotation Yrotation Xrotation
											JOINT LeftHandPinky3
											{
												OFFSET 0.000000 2.842763 0.000000
												CHANNELS 3 Zrotation Yrotation Xrotation
												JOINT LeftHandPinky4
												{
													OFFSET -0.000000 2.639709 -0.000000
													CHANNELS 3 Zrotation Yrotation Xrotation
													End Site
													{
														OFFSET 0.000000 0.000000 0.000000
													}
												}
											}
										}
									}
									JOINT LeftForeArmEnd
									{
										OFFSET 0.000000 0.000000 0.000000
										CHANNELS 3 Zrotation Yrotation Xrotation
										End Site
										{
											OFFSET 0.000000 0.000000 0.000000
										}
									}
								}
								JOINT LeftArmEnd
								{
									OFFSET 0.000000 0.000000 0.000000
									CHANNELS 3 Zrotation Yrotation Xrotation
									End Site
									{
										OFFSET 0.000000 0.000000 0.000000
									}
								}
							}
						}
					}
				}
			}
		}
	}
	JOINT RightUpLeg
	{
		OFFSET -11.289943 0.000000 0.000000
		CHANNELS 3 Zrotation Yrotation Xrotation
		JOINT RightLeg
		{
			OFFSET 0.000000 -38.200325 0.000000
			CHANNELS 3 Zrotation Yrotation Xrotation
			JOINT RightFoot
			{
				OFFSET -0.000000 -39.900856 -0.000000
				CHANNELS 3 Zrotation Yrotation Xrotation
				JOINT RightToeBase
				{
					OFFSET 0.000000 0.000000 15.261641
					CHANNELS 3 Zrotation Yrotation Xrotation
					JOINT RightToeBaseEnd
					{
						OFFSET 0.000000 0.000000 7.370709
						CHANNELS 3 Zrotation Yrotation Xrotation
						End Site
						{
							OFFSET 0.000000 0.000000 0.000000
						}
					}
				}
				JOINT RightLegEnd
				{
					OFFSET 0.000000 0.000000 0.000000
					CHANNELS 3 Zrotation Yrotation Xrotation
					End Site
					{
						OFFSET 0.000000 0.000000 0.000000
					}
				}
			}
			JOINT RightUpLegEnd
			{
				OFFSET 0.000000 0.000000 0.000000
				CHANNELS 3 Zrotation Yrotation Xrotation
				End Site
				{
					OFFSET 0.000000 0.000000 0.000000
				}
			}
		}
	}
	JOINT LeftUpLeg
	{
		OFFSET 11.315661 -0.000000 0.000000
		CHANNELS 3 Zrotation Yrotation Xrotation
		JOINT LeftLeg
		{
			OFFSET -0.000000 -38.200325 -0.000000
			CHANNELS 3 Zrotation Yrotation Xrotation
			JOINT LeftFoot
			{
				OFFSET 0.000000 -39.900856 -0.000000
				CHANNELS 3 Zrotation Yrotation Xrotation
				JOINT LeftToeBase
				{
					OFFSET -0.000000 -0.000000 15.261641
					CHANNELS 3 Zrotation Yrotation Xrotation
					JOINT LeftToeBaseEnd
					{
						OFFSET 0.000000 -0.000000 7.539996
						CHANNELS 3 Zrotation Yrotation Xrotation
						End Site
						{
							OFFSET 0.000000 0.000000 0.000000
						}
					}
				}
				JOINT LeftLegEnd
				{
					OFFSET 0.000000 0.000000 0.000000
					CHANNELS 3 Zrotation Yrotation Xrotation
					End Site
					{
						OFFSET 0.000000 0.000000 0.000000
					}
				}
			}
			JOINT LeftUpLegEnd
			{
				OFFSET 0.000000 0.000000 0.000000
				CHANNELS 3 Zrotation Yrotation Xrotation
				End Site
				{
					OFFSET 0.000000 0.000000 0.000000
				}
			}
		}
	}
}
MOTION
Frames: 5
Frame Time: 0.016667
0.416193 88.822067 3.019477 -0.457884 -1.737749 -9.010339 1.087381 0.064588 6.811713 -0.942974 0.185887 2.405446 0.589939 -1.471065 3.509753 -0.766178 -0.090190 3.611023 0.966926 1.591843 2.475502 0.404182 2.188009 -4.091478 -0.923360 -0.881666 -19.051233 0.000000 0.000000 0.000000 92.619843 -0.354234 9.766092 66.080147 -29.242966 3.300699 -0.245758 16.159557 31.186655 5.959432 8.874922 -3.576836 19.745842 30.143232 62.162792 -8.341954 -11.938713 -20.184107 -6.209056 -7.911566 -13.996290 0.000000 0.000000 0.000000 11.435159 -10.793649 1.718355 9.179182 0.255682 1.677127 8.992533 -0.176049 1.582443 0.000000 0.000000 0.000000 10.652951 -5.308267 0.407203 7.868026 0.400505 0.658781 8.382882 -0.079628 0.555505 0.000000 0.000000 0.000000 10.897861 2.529387 -0.119474 8.145378 -0.848922 -0.990266 8.165394 0.095381 -0.716757 0.000000 0.000000 0.000000 10.230069 11.018888 -1.540307 7.637000 -1.530897 -2.826232 7.491495 0.388224 -2.380801 0.000000 0.000000 0.000000 0.000000 0.000000 0.000000 0.000000 0.000000 0.000000 -89.293106 0.107338 5.887064 -72.753059 17.108938 -6.438022 -0.963662 -11.903275 48.502899 0.970353 -17.411180 -12.944434 -19.608152 -30.194052 62.209583 8.208349 11.654512 -19.827465 6.100005 7.860266 -13.871387 0.000000 0.000000 0.000000 -13.569098 -6.393006 3.243495 -9.128174 0.297254 -1.302203 -9.030676 -0.159991 -1.224528 0.000000 0.000000 0.000000 -12.801322 -1.267052 1.157930 -9.140815 0.406738 -0.567523 -9.124960 -0.077137 -0.455831 0.000000 0.000000 0.000000 -15.558280 6.942969 -0.584776 -10.772423 -0.870163 0.897355 -10.839890 0.087266 0.684561 0.000000 0.000000 0.000000 -17.672689 15.659842 -3.146354 -11.719060 -1.561295 2.868234 -11.420094 0.399656 2.483069 0.000000 0.000000 0.000000 0.000000 0.000000 0.000000 0.000000 0.000000 0.000000 -0.440031 -8.753798 12.621195 -0.057354 -0.620204 5.644650 -2.259111 -7.667570 18.115524 -0.766212 0.788499 -18.818300 0.000000 0.000000 0.000000 0.000000 0.000000 0.000000 0.000000 0.000000 0.000000 -1.405037 -5.715899 7.975550 0.066441 0.322802 9.721364 3.960625 0.308439 16.855057 0.425900 -0.440815 -20.714384 0.000000 0.000000 0.000000 0.000000 0.000000 0.000000 0.000000 0.000000 0.000000 
0.424861 88.820259 3.016665 -0.452599 -1.737152 -9.048773 1.077094 0.067875 6.785164 -0.951528 0.191092 2.428792 0.573249 -1.452206 3.559129 -0.796599 -0.085947 3.634640 0.955113 1.538344 2.510600 0.391634 2.113677 -4.110200 -0.895858 -0.881659 -19.129202 0.000000 0.000000 0.000000 92.599586 -0.339509 9.738898 66.234528 -28.709442 3.041066 -0.270201 16.456573 32.637997 5.551011 9.138693 -3.267292 19.687214 30.164911 62.218903 -8.279943 -11.837333 -20.016571 -6.162146 -7.837781 -13.875874 0.000000 0.000000 0.000000 10.929824 -10.739920 2.090953 8.986583 0.252908 1.702498 8.785854 -0.179348 1.606622 0.000000 0.000000 0.000000 10.220719 -5.240582 0.684008 7.687943 0.399764 0.667105 8.209310 -0.081031 0.562962 0.000000 0.000000 0.000000 10.566935 2.595293 -0.047269 7.985002 -0.847941 -1.001178 7.998805 0.096638 -0.725245 0.000000 0.000000 0.000000 9.966133 11.074169 -1.650614 7.508713 -1.530229 -2.848230 7.378360 0.390302 -2.395457 0.000000 0.000000 0.000000 0.000000 0.000000 0.000000 0.000000 0.000000 0.000000 -89.286240 0.115634 5.807478 -72.785980 16.889149 -6.594962 -0.920353 -12.147215 49.388077 1.039859 -17.202095 -12.602892 -19.505018 -30.227793 62.311340 8.102710 11.452947 -19.518782 6.012819 7.724411 -13.659824 0.000000 0.000000 0.000000 -12.911170 -6.525389 3.724738 -8.777729 0.300741 -1.299186 -8.679214 -0.157370 -1.222755 0.000000 0.000000 0.000000 -12.189098 -1.381592 1.480003 -8.796614 0.407912 -0.567153 -8.792747 -0.076594 -0.455861 0.000000 0.000000 0.000000 -14.963365 6.849247 -0.493392 -10.427518 -0.872528 0.898466 -10.501993 0.085971 0.685561 0.000000 0.000000 0.000000 -17.187490 15.596770 -3.284585 -11.422154 -1.569690 2.878464 -11.119940 0.396406 2.491509 0.000000 0.000000 0.000000 0.000000 0.000000 0.000000 0.000000 0.000000 0.000000 -0.485590 -8.762019 12.671690 -0.058170 -0.619823 5.644567 -2.246242 -7.605154 18.114286 -0.765232 0.790850 -18.809958 0.000000 0.000000 0.000000 0.000000 0.000000 0.000000 0.000000 0.000000 0.000000 -1.418411 -5.743545 7.995906 0.067795 0.320720 9.771535 3.961771 0.282703 16.849457 0.423771 -0.440528 -20.734037 0.000000 0.000000 0.000000 0.000000 0.000000 0.000000 0.000000 0.000000 0.000000 
0.434385 88.819283 3.013382 -0.443358 -1.735200 -9.088162 1.067150 0.071101 6.760384 -0.958071 0.196875 2.452778 0.555859 -1.427336 3.617198 -0.828495 -0.081181 3.648069 0.922512 1.487978 2.545991 0.374482 2.031526 -4.135886 -0.865988 -0.881580 -19.205578 0.000000 0.000000 0.000000 92.585106 -0.330979 9.725222 66.395027 -28.173761 2.804807 -0.296348 16.723633 34.034550 5.071094 9.488929 -2.904367 19.619722 30.189558 62.283699 -8.207052 -11.719034 -19.821945 -6.107075 -7.753108 -13.737410 0.000000 0.000000 0.000000 10.353126 -10.673814 2.499539 8.760002 0.254488 1.713315 8.544117 -0.178269 1.617952 0.000000 0.000000 0.000000 9.711836 -5.160250 0.981734 7.472950 0.400643 0.669657 8.001910 -0.080933 0.565661 0.000000 0.000000 0.000000 10.147867 2.676119 0.028818 7.790861 -0.849812 -1.003599 7.796315 0.095638 -0.727377 0.000000 0.000000 0.000000 9.602920 11.145425 -1.774580 7.348859 -1.537654 -2.847189 7.232862 0.385264 -2.390756 0.000000 0.000000 0.000000 0.000000 0.000000 0.000000 0.000000 0.000000 0.000000 -89.277855 0.123257 5.736958 -72.826904 16.641254 -6.742702 -0.885877 -12.378716 50.253704 1.088407 -17.098259 -12.216254 -19.391409 -30.264095 62.421124 7.989285 11.234057 -19.182737 5.918142 7.576304 -13.430285 0.000000 0.000000 0.000000 -12.185218 -6.669816 4.238010 -8.377207 0.307605 -1.287413 -8.277656 -0.151178 -1.213275 0.000000 0.000000 0.000000 -11.518183 -1.507059 1.827926 -8.401347 0.410498 -0.562742 -8.411736 -0.074865 -0.452735 0.000000 0.000000 0.000000 -14.306262 6.744802 -0.389923 -10.035728 -0.877357 0.893427 -10.115314 0.082759 0.682168 0.000000 0.000000 0.000000 -16.647203 15.525617 -3.422758 -11.088818 -1.585368 2.870067 -10.781598 0.386689 2.485100 0.000000 0.000000 0.000000 0.000000 0.000000 0.000000 0.000000 0.000000 0.000000 -0.532593 -8.764018 12.726313 -0.058941 -0.620138 5.634422 -2.233927 -7.541566 18.113821 -0.765639 0.792612 -18.797808 0.000000 0.000000 0.000000 0.000000 0.000000 0.000000 0.000000 0.000000 0.000000 -1.437178 -5.768082 8.022400 0.069287 0.319928 9.812720 3.963080 0.260592 16.845985 0.420536 -0.440477 -20.751648 0.000000 0.000000 0.000000 0.000000 0.000000 0.000000 0.000000 0.000000 0.000000 
0.443259 88.819748 3.010085 -0.434676 -1.736887 -9.129202 1.061237 0.074332 6.742148 -0.964989 0.204450 2.476068 0.541568 -1.396927 3.676521 -0.862149 -0.074210 3.652862 0.879444 1.432066 2.579803 0.354554 1.933898 -4.160287 -0.832972 -0.885019 -19.269623 0.000000 0.000000 0.000000 92.587280 -0.332350 9.730220 66.533379 -27.706160 2.636533 -0.320510 16.927097 35.219200 4.567279 9.934661 -2.519093 19.557745 30.211725 62.340706 -8.142342 -11.610927 -19.646378 -6.057881 -7.676633 -13.615227 0.000000 0.000000 0.000000 9.831283 -10.608919 2.894748 8.544839 0.259518 1.712482 8.313947 -0.173751 1.619154 0.000000 0.000000 0.000000 9.245951 -5.086009 1.275128 7.271323 0.402642 0.667406 7.807084 -0.079647 0.564488 0.000000 0.000000 0.000000 9.750200 2.751392 0.128805 7.609275 -0.853766 -0.998525 7.607337 0.092878 -0.723819 0.000000 0.000000 0.000000 9.240395 11.212018 -1.846997 7.201588 -1.551035 -2.826385 7.097468 0.374511 -2.369821 0.000000 0.000000 0.000000 0.000000 0.000000 0.000000 0.000000 0.000000 0.000000 -89.272919 0.129661 5.679806 -72.852936 16.450113 -6.873044 -0.860171 -12.569390 51.047653 1.104367 -17.129919 -11.852953 -19.275721 -30.300550 62.530487 7.877210 11.014050 -18.845053 5.823185 7.426591 -13.200557 0.000000 0.000000 0.000000 -11.457049 -6.813044 4.757766 -7.965471 0.317752 -1.268595 -7.865799 -0.141575 -1.197108 0.000000 0.000000 0.000000 -10.849323 -1.631894 2.189818 -7.991715 0.414417 -0.554754 -8.017226 -0.071961 -0.446793 0.000000 0.000000 0.000000 -13.644179 6.639087 -0.262782 -9.629433 -0.884657 0.882092 -9.712271 0.077567 0.674496 0.000000 0.000000 0.000000 -16.095991 15.453393 -3.524872 -10.743145 -1.608507 2.841375 -10.430960 0.370020 2.462559 0.000000 0.000000 0.000000 0.000000 0.000000 0.000000 0.000000 0.000000 0.000000 -0.572529 -8.762601 12.787820 -0.059463 -0.620785 5.610026 -2.226032 -7.478864 18.117489 -0.766770 0.792974 -18.782101 0.000000 0.000000 0.000000 0.000000 0.000000 0.000000 0.000000 0.000000 0.000000 -1.453955 -5.785215 8.062377 0.070881 0.320812 9.833941 3.964581 0.248247 16.849216 0.417585 -0.440236 -20.768190 0.000000 0.000000 0.000000 0.000000 0.000000 0.000000 0.000000 0.000000 0.000000 
0.448822 88.821762 3.007370 -0.432281 -1.748550 -9.170438 1.059850 0.077425 6.736599 -0.970834 0.212676 2.494503 0.533771 -1.360641 3.719909 -0.894509 -0.064740 3.648759 0.832585 1.368970 2.637586 0.335140 1.822419 -4.161546 -0.799201 -0.893316 -19.315567 0.000000 0.000000 0.000000 92.622238 -0.339552 9.754329 66.608421 -27.422672 2.580330 -0.339845 17.047115 35.966675 4.107303 10.448593 -2.158018 19.523926 30.224323 62.367630 -8.110771 -11.554670 -19.556501 -6.034322 -7.638025 -13.557110 0.000000 0.000000 0.000000 9.546268 -10.571150 3.195776 8.425527 0.266332 1.706035 8.180498 -0.167709 1.615423 0.000000 0.000000 0.000000 8.995634 -5.047014 1.517526 7.171432 0.404936 0.662462 7.708779 -0.077937 0.561348 0.000000 0.000000 0.000000 9.534643 2.793552 0.269497 7.528938 -0.858425 -0.989136 7.521101 0.089288 -0.717039 0.000000 0.000000 0.000000 9.024240 11.250319 -1.798159 7.144828 -1.566295 -2.796286 7.049321 0.360663 -2.341345 0.000000 0.000000 0.000000 0.000000 0.000000 0.000000 0.000000 0.000000 0.000000 -89.284149 0.137598 5.637367 -72.833305 16.421320 -6.959426 -0.840791 -12.678068 51.572037 1.090935 -17.296144 -11.602165 -19.182127 -30.330103 62.617531 7.791885 10.837103 -18.575050 5.747504 7.303725 -13.018381 0.000000 0.000000 0.000000 -10.904963 -6.922146 5.209282 -7.642436 0.330228 -1.246643 -7.546693 -0.129723 -1.177407 0.000000 0.000000 0.000000 -10.351872 -1.725604 2.524960 -7.664481 0.419354 -0.544612 -7.705804 -0.068103 -0.439162 0.000000 0.000000 0.000000 -13.141818 6.558742 -0.100008 -9.301954 -0.893914 0.866339 -9.382678 0.070772 0.664050 0.000000 0.000000 0.000000 -15.670632 15.398382 -3.531845 -10.458096 -1.637121 2.796874 -10.141403 0.347386 2.427663 0.000000 0.000000 0.000000 0.000000 0.000000 0.000000 0.000000 0.000000 0.000000 -0.594171 -8.758194 12.859371 -0.059544 -0.621749 5.566053 -2.227806 -7.413810 18.128885 -0.767712 0.792191 -18.765139 0.000000 0.000000 0.000000 0.000000 0.000000 0.000000 0.000000 0.000000 0.000000 -1.458184 -5.793687 8.121219 0.072365 0.323050 9.833587 3.966651 0.257779 16.855497 0.416108 -0.439297 -20.784340 0.000000 0.000000 0.000000 0.000000 0.000000 0.000000 0.000000 0.000000 0.000000 
